<?xml version="1.0" encoding="UTF-8"?>
<svg width="102.57mm" height="129.45mm" version="1.1" viewBox="0 0 102.57 129.45" xmlns="http://www.w3.org/2000/svg" xmlns:cc="http://creativecommons.org/ns#" xmlns:dc="http://purl.org/dc/elements/1.1/" xmlns:rdf="http://www.w3.org/1999/02/22-rdf-syntax-ns#">
 <metadata>
  <rdf:RDF>
   <cc:Work rdf:about="">
    <dc:format>image/svg+xml</dc:format>
    <dc:type rdf:resource="http://purl.org/dc/dcmitype/StillImage"/>
    <dc:title/>
   </cc:Work>
  </rdf:RDF>
 </metadata>
 <g transform="matrix(.26458 0 0 .26458 -13.439 -.000259)">
  <path d="m427.2 175.17c-24.369 0.442-47.378 5.487-68.177 15.765 12.618-44.96-0.03-90.561-36.933-125.7-0.934-1.247-2.006-2.184-3.174-2.844-10.892-7.83-25.628 7.447-15.32 17.258 7.109 14.096 16.062 47.984-4.067 56.33-9.358 3.885-19.667-12.989-23.333-18.911-17.209-27.789-19.312-65.19-4.479-94.206 0.254-0.188 0.487-0.401 0.741-0.587 11.253-8.155 1.828-26.354-9.399-21.449-3.347 0.165-6.622 1.788-8.851 5.52-0.27 0.46-0.487 0.958-0.757 1.422-51.014 41.271-71.666 106.49-46.974 169.33 0.535 1.355 1.269 2.47 2.092 3.458 4.639 11.913 10.367 33.809-5.164 39.402-25.385 9.138-34.533-29.98-42.343-45.658-15.143-30.385-47.205-50.168-77.602-62.731-11.934-4.936-17.997 11.035-10.758 19.192 17.735 52.39-4.073 96.608-16.359 147.23-8.721 35.927-7.51 74.078 6.165 108.56 24.991 63.018 88.778 96.131 153.43 101.86 68.896 6.108 160.16-20.957 191.88-87.483 30.393-63.744 6.449-139.73 27.904-206.38 5.495-6.68 2.677-19.575-8.53-19.372z"/>
 </g>
 <g transform="translate(-54.212 -78.3)">
  <g transform="matrix(.26458 0 0 .26458 40.773 78.3)" fill="#f00">
   <path d="m393.28 372.82c-9.395 37.739-38.791 62.154-74.077 76.423 4.103-4.555 7.621-9.612 10.308-15.249 8.622-18.088 8.846-38.141 9.064-57.533 0.178-15.681 0.355-31.89 5.042-46.743 1.854-2.574 2.184-6.169 0.798-9.104-1.331-2.833-4.067-4.515-7.48-4.515h-5e-3c-11.055 0.203-21.353 2.229-30.681 6.033 4.367-22.171-2.976-44.092-20.358-60.601-0.67-0.894-1.478-1.62-2.168-1.991-4.407-3.153-11.075-0.863-13.061 4.104-1.163 2.895-0.543 5.951 1.646 8.271 2.534 5.221 5.037 14.752 2.925 20.435-0.752 2.016-2.001 3.366-4.291 4.22-1.279 0-3.712-1.478-8.145-8.628-8.155-13.167-9.105-31.001-2.418-44.582 3.032-2.298 4.221-6.139 3.017-9.841-1.462-4.515-5.981-7.074-10.054-5.561-2.564 0.271-4.718 1.686-6.104 4.02l-0.198 0.36c-27.05 22.155-36.528 56.751-24.133 88.296 0.297 0.741 0.686 1.427 1.191 2.087 2.252 5.931 2.818 10.918 1.539 13.721-0.546 1.198-1.419 1.985-2.75 2.463-0.988 0.355-1.94 0.538-2.818 0.538-6.251 0-10.151-9.684-13-16.763-0.854-2.122-1.638-4.062-2.397-5.58-6.751-13.538-20.406-24.628-40.585-32.972-4.009-1.65-8.049-5e-3 -9.78 3.839-1.419 3.153-0.993 6.917 1.033 9.552 6.568 19.886 1.404 37.638-4.06 56.427-1.519 5.226-3.09 10.618-4.431 16.143-4.763 19.611-3.646 39.146 3.229 56.482 4.535 11.426 11.71 21.373 20.949 29.514-45.697-15.955-82.434-51.562-94.003-101.05-9.13-39.055 2.917-78.287 14.447-115.37 9.953-32.02 15.043-62.122 9.254-93.648 19.5 12.106 35.396 28.392 46.093 49.658 0.099 0.406 0.145 0.792 0.289 1.208 9.044 26.03 31.377 54.337 62.472 45.519 30.747-8.721 30.549-46.425 20.498-70.33-0.478-1.133-1.102-2.085-1.788-2.953-14.79-39.154-10.316-79.422 10.788-111.91-2.506 34.911 8.701 71.846 35.195 93.328 14.462 11.725 32.489 11.974 45.763-1.528 7.638-7.774 11.888-17.062 13.711-26.906 11.796 29.462 8.419 62.055-10.882 93.742-0.346 0.563-0.564 1.115-0.803 1.666-7.663 10.347 7.627 24.57 17.92 14.767 19.946-19.009 43.752-29.239 70.036-32.593-14.574 56.816-2.58 116.21-16.737 173.13z" fill="#f60"/>
   <path d="m175.25 309.42c7.561 5.637 13.431 12.563 17.405 20.389l0.193 0.726c4.103 11.812 13.967 25.608 28.267 25.608 2.13 0 4.319-0.319 6.5-0.935 5.782-1.64 10.187-5.306 12.738-10.612 4.441-9.242 2.407-21.114-0.686-28.468-0.256-0.609-0.576-1.178-0.998-1.757-5.632-15.152-5.348-31.077 0.597-45.031 1.269 15.909 8.028 30.244 18.717 38.918 8.435 6.829 19.322 6.474 26.64-0.976 2.031-2.057 3.682-4.372 4.971-6.921 2.596 12.187 0.021 25.024-7.611 37.557-0.178 0.294-0.31 0.568-0.462 0.914-1.63 2.392-1.818 5.353-0.482 8.008 2.498 4.966 9.48 6.565 13.614 2.631 8.332-7.947 18.483-13.056 30.213-15.209-2.944 13.568-3.229 27.441-3.503 40.898-0.295 14.197-0.589 28.883-4.073 42.868-7.724 31.047-45.631 44.95-79.765 44.95-2.476 0-4.893-0.076-7.249-0.219-33.581-2.066-60.86-23.638-67.882-53.679-4.489-19.2 1.48-38.41 7.259-56.985 5.13-16.533 6.923-29.985 5.597-42.675z" fill="#ff0"/>
  </g>
 </g>
</svg>
