<?xml version="1.0" encoding="UTF-8"?>
<svg width="468.08px" height="468.08px" enable-background="new 0 0 468.082 468.081" version="1.1" viewBox="0 0 468.08 468.08" xml:space="preserve" xmlns="http://www.w3.org/2000/svg" xmlns:cc="http://creativecommons.org/ns#" xmlns:dc="http://purl.org/dc/elements/1.1/" xmlns:rdf="http://www.w3.org/1999/02/22-rdf-syntax-ns#"><metadata><rdf:RDF><cc:Work rdf:about=""><dc:format>image/svg+xml</dc:format><dc:type rdf:resource="http://purl.org/dc/dcmitype/StillImage"/><dc:title/></cc:Work></rdf:RDF></metadata>

	
		<path d="m366.55 0.349c-25.232 4.128-51.882 6.119-83.883 6.266-1.747 5e-3 -3.443 0.201-5.292 0.597-11.826 0.942-20.529 8.866-21.251 19.469-0.797 11.626-1.595 76.703-2.509 152.06-1.365 111.09-3.057 249.35-5.347 265.86-0.544 3.854 0.04 7.459 1.722 10.719 2.691 7.896 9.856 12.756 18.931 12.756 0.858 0 1.752-0.04 2.681-0.127 36.607-3.585 68.142-4.671 97.832-3.382 4.881 0.168 9.08-0.767 12.736-2.884 7.292-3.356 11.729-9.603 12.212-17.225 1.904-30.214 1.991-416.77 1.991-420.66 0-5.692-2.285-10.783-6.475-14.459-5.189-7.005-14.116-10.514-23.348-8.996zm-15.493 43.569-0.025 17.778c-0.096 80.562-0.381 313.82-1.086 361.27-17.642-0.111-35.395 0.452-54.426 1.782 1.071-28.817 1.939-114.81 3.006-228.84 0.604-65.087 1.183-127.07 1.706-148.48 17.661-0.51 34.424-1.67 50.825-3.516z"/>
		<path d="m190.18 0.349c-25.23 4.128-51.879 6.119-83.883 6.266-1.747 5e-3 -3.442 0.201-5.289 0.597-11.829 0.942-20.53 8.866-21.251 19.474-0.797 11.611-1.592 76.594-2.511 151.84-1.363 111.18-3.055 249.56-5.347 266.08-0.541 3.854 0.043 7.459 1.721 10.719 2.699 7.896 9.859 12.756 18.934 12.756 0.858 0 1.752-0.04 2.679-0.127 36.607-3.585 68.159-4.682 97.84-3.382 4.872 0.178 9.079-0.767 12.728-2.884 7.292-3.356 11.733-9.603 12.215-17.225 1.904-30.209 1.996-416.76 1.996-420.66 0-5.692-2.288-10.778-6.477-14.459-5.197-7.009-14.146-10.503-23.355-8.995zm-15.491 43.569-0.025 17.94c-0.099 80.52-0.381 313.67-1.082 361.11-17.659-0.111-35.391 0.452-54.429 1.782 1.066-28.797 1.94-114.73 3.001-228.68 0.604-65.161 1.186-127.22 1.706-148.63 17.665-0.509 34.425-1.669 50.829-3.515z"/>
	
















</svg>
