<?xml version="1.0" encoding="UTF-8"?>
<svg width="154.83mm" height="154.83mm" version="1.1" viewBox="0 0 154.83 154.83" xmlns="http://www.w3.org/2000/svg" xmlns:cc="http://creativecommons.org/ns#" xmlns:dc="http://purl.org/dc/elements/1.1/" xmlns:rdf="http://www.w3.org/1999/02/22-rdf-syntax-ns#">
 <metadata>
  <rdf:RDF>
   <cc:Work rdf:about="">
    <dc:format>image/svg+xml</dc:format>
    <dc:type rdf:resource="http://purl.org/dc/dcmitype/StillImage"/>
    <dc:title/>
   </cc:Work>
  </rdf:RDF>
 </metadata>
 <g transform="translate(-24.556 -44.741)">
  <circle cx="101.97" cy="122.48" r="69.948" fill="#ffdc64" stroke-width=".19952"/>
 </g>
 <g transform="translate(-24.556 -44.741)">
  <g transform="matrix(1.048 -.46887 .46887 1.048 34.014 55.771)">
   <g stroke-width=".26458">
    <rect x="61.837" y="54.679" width="12.902" height="8.6011" fill="#b7b2b8"/>
    <rect x="61.837" y="54.679" width="6.4508" height="8.6011" fill="#c9c6ca"/>
    <path d="m62.259 50.034-9.0228-1.8045v21.503l9.0228-1.8045c1.0052-0.20108 1.7285-1.0835 1.7285-2.1085v-13.677c0-1.0255-0.72337-1.9079-1.7285-2.1087z" fill="#5c545e"/>
    <path d="m30.658 74.033h-18.277v12.902h11.067c0.90778 0 1.6214-0.79481 1.492-1.6933-0.43127-2.9953-0.4789-9.1091 5.7184-11.208z" fill="#423a44"/>
    <path d="m25.701 78.333c0.82841-1.7926 2.3265-3.4094 4.9575-4.3005h-18.277v4.3005z" fill="#4b3f4e"/>
   </g>
   <g stroke-width=".26458">
    <path d="m-15.573 51.755v14.452c0 2.05 1.447 3.815 3.457 4.2169l7.2943 1.4589v-25.803l-7.2943 1.4589c-2.01 0.40217-3.457 2.1669-3.457 4.2169z" fill="#5c545e"/>
    <path d="m-11.272 47.37v11.532c0 2.2662-2.0733 3.9656-4.2952 3.5211l-0.0053-7.94e-4v3.7851c0 2.05 1.447 3.815 3.457 4.2172l7.294 1.4589v-25.803z" fill="#423a44"/>
    <path d="m51.086 43.929h-53.757c-2.3752 0-4.3005 1.9254-4.3005 4.3005v21.503c0 2.3752 1.9254 4.3005 4.3005 4.3005h53.757c1.1877 0 2.1503-0.96282 2.1503-2.1503v-25.803c0-1.1874-0.96282-2.1503-2.1503-2.1503z" fill="#fff0bf"/>
   </g>
   <g transform="matrix(.26458 0 0 .26458 -15.573 19.201)" fill="#c8b281">
    <path d="m113.78 190.98c-26.93 0-48.762-21.831-48.762-48.762v-48.762h-16.254c-8.977 0-16.254 7.277-16.254 16.254v81.27c0 8.977 7.277 16.254 16.254 16.254h203.18c4.488 0 8.127-3.639 8.127-8.127v-8.127z"/>
    <path d="m106.57 291.71 23.465-84.473h-73.143l-40.635 146.29h137.3c-32.247 0-55.614-30.742-46.983-61.813z"/>
   </g>
   <g stroke-width=".26458">
    <path d="m18.832 74.033h-19.352l-10.751 38.705h8.8294l8.2444-29.68c0.77549-2.7921 3.3176-4.7244 6.2153-4.7244h5.62z" fill="#eecf96"/>
    <path d="m25.282 129.94h-38.705c-1.1874 0-2.1503-0.96282-2.1503-2.1503v-12.902c0-1.1874 0.96282-2.1503 2.1503-2.1503h38.705c1.1874 0 2.1503 0.96282 2.1503 2.1503v12.902c0 1.1874-0.96282 2.1503-2.1503 2.1503z" fill="#5c545e"/>
    <path d="m12.381 56.831h-10.751c-1.1885 0-2.1503-0.96176-2.1503-2.1503 0-1.1885 0.96176-2.1503 2.1503-2.1503h10.751c1.1885 0 2.1503 0.96176 2.1503 2.1503 0 1.1885-0.96176 2.1503-2.1503 2.1503z" fill="#c8b281"/>
   </g>
   <g transform="matrix(.26458 0 0 .26458 -15.573 19.201)" fill="#eecf96">
    <path d="m227.56 142.22h-8.127c-4.492 0-8.127-3.635-8.127-8.127s3.635-8.127 8.127-8.127h8.127c4.492 0 8.127 3.635 8.127 8.127s-3.635 8.127-8.127 8.127z"/>
    <path d="m227.56 174.73h-8.127c-4.492 0-8.127-3.635-8.127-8.127s3.635-8.127 8.127-8.127h8.127c4.492 0 8.127 3.635 8.127 8.127s-3.635 8.127-8.127 8.127z"/>
   </g>
   <path d="m12.381 65.432h-10.751c-1.1885 0-2.1503-0.96176-2.1503-2.1503 0-1.1885 0.96176-2.1503 2.1503-2.1503h10.751c1.1885 0 2.1503 0.96176 2.1503 2.1503 0 1.1885-0.96176 2.1503-2.1503 2.1503z" fill="#c8b281" stroke-width=".26458"/>
   <path d="m100.6 56.831h-32.254v4.3005h32.254c1.1885 0 2.1503-0.96176 2.1503-2.1503 0-1.1885-0.96176-2.1503-2.1503-2.1503z" fill="#d9d6d9" stroke-width=".26458"/>
   <g transform="matrix(.26458 0 0 .26458 -15.573 19.201)" fill="#423a44">
    <path d="m56.889 402.29c-13.465 0-24.381-10.916-24.381-24.381v-24.381h-24.381c-4.488 0-8.127 3.639-8.127 8.127v48.762c0 4.488 3.639 8.127 8.127 8.127h146.29c4.488 0 8.127-3.639 8.127-8.127v-8.127z"/>
    <path d="m294.16 159.78-34.102 6.82v24.381l34.102-6.82c3.799-0.76 6.533-4.095 6.533-7.969v-24.381c0 3.874-2.734 7.209-6.533 7.969z"/>
   </g>
   <g transform="matrix(.26458 0 0 .26458 -32.716 19.201)" fill="#9c969e">
    <polygon points="430.73 158.48 446.98 142.22 422.6 142.22 406.35 158.48"/>
    <polygon points="479.49 158.48 495.75 142.22 471.36 142.22 455.11 158.48"/>
   </g>
   <g transform="translate(-6.4797)" stroke-width=".26458">
    <path d="m86.17 63.772-3.6573 1.2189c-0.87683 0.29236-1.7952 0.44132-2.7197 0.44132h-5.0543c-1.1874 0-2.1503-0.96282-2.1503-2.1503v-8.6011c0-1.1874 0.96282-2.1503 2.1503-2.1503h5.0543c0.92445 0 1.8426 0.14896 2.7197 0.44132l3.6573 1.2189c0.87815 0.29263 1.4703 1.1144 1.4703 2.0399v5.5012c0 0.92578-0.59214 1.7473-1.4703 2.0399z" fill="#5c545e"/>
    <path d="m86.17 59.471-3.6571 1.2189c-0.87683 0.29236-1.7952 0.44132-2.7197 0.44132h-5.0543c-1.1877 0-2.1503-0.96282-2.1503-2.1503v4.3005c0 1.1874 0.96255 2.1503 2.1503 2.1503h5.0543c0.92445 0 1.8426-0.14896 2.7197-0.44132l3.6571-1.2189c0.87815-0.29263 1.4706-1.1144 1.4706-2.0399v-4.3005c-2.6e-4 0.92578-0.5924 1.7473-1.4706 2.0399z" fill="#423a44"/>
   </g>
  </g>
  <g transform="matrix(3.3231 -1.587 1.587 3.3231 -324.98 -106.07)" fill="#423a44" style="font-variant-caps:normal;font-variant-east-asian:normal;font-variant-ligatures:normal;font-variant-numeric:normal;shape-inside:url(#rect1934);white-space:pre" aria-label="x">
   <path d="m75.962 102.31q0.3175-0.91017 0.75141-1.7674 0.4445-0.85725 0.65616-1.3652-0.127-0.30692-0.56092-1.2382-0.42333-0.94191-0.55033-1.2594 0.254-0.04233 0.52916-0.03175 0.28575 0.01058 0.56092 0.03175 0.17992 0.32808 0.30692 0.71966 0.13758 0.381 0.3175 0.6985 0.20108-0.28575 0.32808-0.6985 0.13758-0.41275 0.23283-0.762 0.28575-0.01058 0.58208-0.02117 0.29633-0.02117 0.60325-0.04233-0.22225 0.68792-0.56091 1.3229-0.33867 0.635-0.60325 1.3017 0.14817 0.83608 0.60325 1.6087 0.46566 0.762 0.75141 1.5557-0.3175-0.0106-0.635-0.0212-0.3175-0.0212-0.635-0.0212-0.26458-0.60325-0.45508-1.1324-0.1905-0.52917-0.28575-0.73025-0.60325 1.2912-0.70908 1.5346-0.09525 0.23283-0.11642 0.37041-0.47625 0-1.1112-0.0529z" fill="#423a44" style="font-variant-caps:normal;font-variant-east-asian:normal;font-variant-ligatures:normal;font-variant-numeric:normal;shape-inside:url(#rect1934)"/>
  </g>
 </g>
</svg>
